<svg id="Layer_1" height="512" viewBox="0 0 512 512" width="512" xmlns="http://www.w3.org/2000/svg" data-name="Layer 1"><path d="m106.567 172.464c.162.013.321.019.479.019a6 6 0 0 0 5.975-5.529c.16-2.038.389-4.093.682-6.109a6 6 0 1 0 -11.877-1.721c-.329 2.273-.588 4.59-.768 6.887a6 6 0 0 0 5.509 6.453z"/><path d="m110.784 145.532a6 6 0 0 0 7.708-3.548 93.657 93.657 0 0 1 87.689-60.984 93.959 93.959 0 0 1 21.2 2.42 6 6 0 0 0 2.711-11.69 106.059 106.059 0 0 0 -23.951-2.73 105.661 105.661 0 0 0 -98.9 68.823 6 6 0 0 0 3.543 7.709z"/><path d="m421.621 171.433a94.9 94.9 0 0 0 -117.9-83.6 130.1 130.1 0 0 0 -97.539-43.833h-.051a130.022 130.022 0 0 0 -91.539 37.654 6 6 0 1 0 8.36 8.6 118.063 118.063 0 0 1 83.183-34.254h.046a118.159 118.159 0 0 1 90.876 42.475 6 6 0 0 0 6.32 1.9 82.894 82.894 0 0 1 106.548 76.125 6.021 6.021 0 0 0 4.8 5.66 82.937 82.937 0 0 1 -16.5 164.209h-98.625l12.715-24.362a6 6 0 0 0 -5.315-8.773h-32.584l28.378-74.155a6 6 0 0 0 -5.6-8.145h-74.694a6 6 0 0 0 -5.933 5.1l-16.71 110.336h-86.12a82.946 82.946 0 0 1 -29.788-160.332 6.055 6.055 0 0 0 3.914-5.905c-.092-2.018-.136-3.86-.136-5.633a117.845 117.845 0 0 1 7.644-41.909 5.974 5.974 0 0 0 -1.371-6.342l-.01-.01a5.986 5.986 0 0 0 -9.824 2.05 129.722 129.722 0 0 0 -8.439 46.211q0 .957.015 1.938a94.947 94.947 0 0 0 37.99 181.932h84.309l-.973 6.419a6 6 0 0 0 5.933 6.9h27.61l-4.126 90.037a6 6 0 0 0 11.314 3.05l55.54-106.4h104.892a94.936 94.936 0 0 0 79.125-147.338 94.244 94.244 0 0 0 -55.735-39.605zm-181.906 263.738 3.172-69.207a6 6 0 0 0 -5.994-6.275h-26.914l17.682-116.755h60.809l-28.378 74.156a6 6 0 0 0 5.6 8.144h31.4z"/></svg>