<svg id="Capa_1" enable-background="new 0 0 512 512" height="512" viewBox="0 0 512 512" width="512" xmlns="http://www.w3.org/2000/svg"><g><path d="m106.434 497h-16.101c-41.539 0-75.333-33.794-75.333-75.333 0-41.516 33.758-75.296 75.266-75.333.139.005.278.009.418.009h.005c41.375.193 74.978 33.905 74.978 75.324 0 4.142 3.357 7.5 7.5 7.5s7.5-3.358 7.5-7.5c0-47.275-36.506-86.18-82.809-90.017-.005-.365-.025-.738-.025-1.1 0-14.038 3.544-27.919 10.248-40.146 1.991-3.632.662-8.19-2.97-10.182-3.633-1.992-8.19-.662-10.183 2.97-7.913 14.43-12.096 30.806-12.096 47.357 0 .363.002.727.007 1.092-46.317 3.822-82.839 42.739-82.839 90.026 0 49.81 40.523 90.333 90.333 90.333h16.101c4.143 0 7.5-3.358 7.5-7.5s-3.358-7.5-7.5-7.5z"/><path d="m480.893 272.217c20.35-29.136 31.107-63.387 31.107-99.05v-.289c-.011-6.049-4.15-11.153-10.067-12.412-5.968-1.268-11.871 1.729-14.364 7.294-17.56 39.2-56.645 64.415-99.597 64.172-59.199-.299-107.605-48.704-107.903-107.904-.218-42.944 24.972-82.038 64.173-99.596 5.564-2.493 8.563-8.399 7.294-14.364-1.261-5.918-6.364-10.058-12.426-10.068h-.277c-95.483 0-173.165 77.681-173.166 173.164-.001 20.32 3.476 40.092 10.321 58.936-22.449 1.238-43.774 10.06-60.553 25.187-3.076 2.773-3.321 7.516-.548 10.592 2.773 3.077 7.516 3.321 10.593.548 15.373-13.861 35.251-21.494 55.97-21.494 36.938 0 68.924 23.783 79.77 58.52-17.757 9.918-29.286 28.845-29.286 49.947 0 4.142 3.357 7.5 7.5 7.5s7.5-3.358 7.5-7.5c0-17.243 10.432-32.515 25.98-38.969.023-.009.047-.015.071-.025 5.131-2.127 10.564-3.206 16.149-3.206 16.235 0 31.217 9.493 38.167 24.186.943 1.996 2.72 3.475 4.853 4.041 2.132.566 4.409.166 6.22-1.1 9.894-6.909 21.51-10.561 33.593-10.561 26.854 0 50.263 18.141 56.927 44.116.871 3.401 3.944 5.733 7.498 5.633 0 0 1.393-.049 1.842-.049 32.404 0 58.767 26.363 58.767 58.767s-26.363 58.767-58.768 58.767-58.767-26.363-58.767-58.767c0-4.142-3.357-7.5-7.5-7.5s-7.5 3.358-7.5 7.5c0 23.962 11.491 45.283 29.244 58.767h-257.276c-4.143 0-7.5 3.358-7.5 7.5s3.357 7.5 7.5 7.5h301.8c40.674 0 73.766-33.091 73.766-73.767 0-39.499-31.201-71.845-70.253-73.684-5.049-14.74-14.51-27.147-26.658-35.889 26.285-12.883 48.845-32.165 65.804-56.443zm-82.435 47.466c-8.273-3.18-17.216-4.916-26.491-4.916-12.419 0-24.447 3.074-35.219 8.95-10.508-15.722-28.413-25.516-47.614-25.516-4.739 0-9.4.574-13.932 1.712-5.936-18.111-17.154-34.361-32.147-46.371-14.584-11.683-32.324-18.944-50.836-20.992-7.666-18.858-11.552-38.813-11.551-59.385.001-83.896 65.658-152.745 148.288-157.859-39.345 21.689-64.117 63.35-63.887 108.798.34 67.387 55.44 122.487 122.827 122.828.212.001.415.002.627.002 45.195-.003 86.571-24.717 108.162-63.87-3.832 60.025-42.235 113.793-98.227 136.619z"/><path d="m156.6 48.133h9.067v9.067c0 4.142 3.357 7.5 7.5 7.5s7.5-3.358 7.5-7.5v-9.067h9.066c4.143 0 7.5-3.358 7.5-7.5s-3.357-7.5-7.5-7.5h-9.066v-9.066c0-4.142-3.357-7.5-7.5-7.5s-7.5 3.358-7.5 7.5v9.066h-9.067c-4.143 0-7.5 3.358-7.5 7.5s3.357 7.5 7.5 7.5z"/><path d="m90.333 139.251c4.143 0 7.5-3.358 7.5-7.5v-16.567c0-4.142-3.357-7.5-7.5-7.5s-7.5 3.358-7.5 7.5v16.567c0 4.142 3.357 7.5 7.5 7.5z"/><path d="m90.333 205.518c4.143 0 7.5-3.358 7.5-7.5v-16.567c0-4.142-3.357-7.5-7.5-7.5s-7.5 3.358-7.5 7.5v16.567c0 4.142 3.357 7.5 7.5 7.5z"/><path d="m115.184 164.101h16.566c4.143 0 7.5-3.358 7.5-7.5s-3.357-7.5-7.5-7.5h-16.566c-4.143 0-7.5 3.358-7.5 7.5s3.357 7.5 7.5 7.5z"/><path d="m48.917 164.101h16.566c4.143 0 7.5-3.358 7.5-7.5s-3.357-7.5-7.5-7.5h-16.566c-4.143 0-7.5 3.358-7.5 7.5s3.357 7.5 7.5 7.5z"/><path d="m421.667 89.55c4.143 0 7.5-3.358 7.5-7.5v-16.567c0-4.142-3.357-7.5-7.5-7.5s-7.5 3.358-7.5 7.5v16.567c0 4.142 3.357 7.5 7.5 7.5z"/><path d="m421.667 155.817c4.143 0 7.5-3.358 7.5-7.5v-16.567c0-4.142-3.357-7.5-7.5-7.5s-7.5 3.358-7.5 7.5v16.567c0 4.142 3.357 7.5 7.5 7.5z"/><path d="m446.517 114.4h16.566c4.143 0 7.5-3.358 7.5-7.5s-3.357-7.5-7.5-7.5h-16.566c-4.143 0-7.5 3.358-7.5 7.5 0 4.143 3.357 7.5 7.5 7.5z"/><path d="m380.25 114.4h16.566c4.143 0 7.5-3.358 7.5-7.5s-3.357-7.5-7.5-7.5h-16.566c-4.143 0-7.5 3.358-7.5 7.5 0 4.143 3.357 7.5 7.5 7.5z"/></g></svg>