<?xml version="1.0" encoding="iso-8859-1"?>
<!-- Generator: Adobe Illustrator 19.0.0, SVG Export Plug-In . SVG Version: 6.00 Build 0)  -->
<svg version="1.1" id="Capa_1" xmlns="http://www.w3.org/2000/svg" xmlns:xlink="http://www.w3.org/1999/xlink" x="0px" y="0px"
	 viewBox="0 0 480.02 480.02" style="enable-background:new 0 0 480.02 480.02;" xml:space="preserve">
<g>
	<g>
		<path d="M353.248,436.051l-32-56c-2.101-3.887-6.955-5.335-10.842-3.234c-3.887,2.101-5.335,6.955-3.234,10.842
			c0.06,0.111,0.123,0.221,0.188,0.329l32,56c1.418,2.482,4.053,4.02,6.912,4.032c1.403,0.009,2.784-0.355,4-1.056
			C354.106,444.771,355.438,439.887,353.248,436.051z"/>
	</g>
</g>
<g>
	<g>
		<path d="M329.248,468.051l-32-56c-2.178-3.844-7.06-5.195-10.904-3.017c-0.024,0.014-0.048,0.027-0.072,0.041
			c-3.834,2.192-5.166,7.077-2.976,10.912l32,56c1.429,2.502,4.094,4.043,6.976,4.032c1.403,0.009,2.784-0.355,4-1.056
			C330.106,476.771,331.438,471.887,329.248,468.051z"/>
	</g>
</g>
<g>
	<g>
		<path d="M273.248,436.051l-32-56c-2.282-3.783-7.199-5-10.982-2.718c-3.657,2.206-4.936,6.896-2.906,10.654l32,56
			c1.418,2.482,4.053,4.02,6.912,4.032c1.403,0.009,2.784-0.355,4-1.056C274.106,444.771,275.438,439.887,273.248,436.051z"/>
	</g>
</g>
<g>
	<g>
		<path d="M249.248,468.051l-32-56c-2.282-3.783-7.199-5-10.982-2.718c-3.657,2.206-4.936,6.896-2.906,10.654l32,56
			c1.418,2.482,4.053,4.02,6.912,4.032c1.403,0.009,2.784-0.355,4-1.056C250.106,476.771,251.438,471.887,249.248,468.051z"/>
	</g>
</g>
<g>
	<g>
		<path d="M193.208,436.051l-32-56c-2.282-3.783-7.199-5-10.982-2.718c-3.657,2.206-4.936,6.896-2.906,10.654l32,56
			c1.425,2.495,4.079,4.034,6.952,4.032c1.39,0.002,2.756-0.362,3.96-1.056C194.066,444.771,195.398,439.887,193.208,436.051z"/>
	</g>
</g>
<g>
	<g>
		<path d="M169.208,468.051l-32-56c-2.282-3.783-7.199-5-10.982-2.718c-3.657,2.206-4.936,6.896-2.906,10.654l32,56
			c1.425,2.495,4.079,4.034,6.952,4.032c1.39,0.002,2.756-0.362,3.96-1.056C170.066,476.771,171.398,471.887,169.208,468.051z"/>
	</g>
</g>
<g>
	<g>
		<path d="M113.248,436.051l-32-56c-2.282-3.783-7.199-5-10.982-2.718c-3.657,2.206-4.936,6.896-2.906,10.654l32,56
			c1.418,2.482,4.053,4.02,6.912,4.032c1.403,0.009,2.784-0.355,4-1.056C114.106,444.771,115.438,439.887,113.248,436.051z"/>
	</g>
</g>
<g>
	<g>
		<path d="M468.456,278.403c-60.994,10.1-118.628-31.158-128.728-92.152c-10.1-60.994,31.158-118.628,92.152-128.728
			c6.079-1.007,12.231-1.51,18.392-1.504c6.095,0.038,12.176,0.573,18.184,1.6c4.36,0.714,8.474-2.242,9.187-6.603
			c0.438-2.675-0.509-5.39-2.515-7.213c-68.389-62.403-174.417-57.549-236.82,10.84c-25.941,28.43-41.31,64.921-43.524,103.344
			c-10.404-3.877-21.409-5.897-32.512-5.968c-46.743,0.247-86.594,33.947-94.6,80h-1.4c-35.346,0-64,28.654-64,64
			c0,35.346,28.654,64,64,64h256c17.157-0.021,32.999-9.198,41.552-24.072c41.219-0.379,80.85-15.949,111.304-43.728
			c3.27-2.971,3.513-8.031,0.541-11.301C473.846,278.912,471.131,277.965,468.456,278.403z M322.272,344.019h-256
			c-26.509,0.197-48.159-21.132-48.356-47.641c-0.197-26.509,21.132-48.159,47.641-48.356c2.65-0.02,5.298,0.18,7.915,0.597
			c4.369,0.66,8.445-2.346,9.106-6.715c0.027-0.177,0.048-0.355,0.062-0.533c3.621-43.981,42.21-76.699,86.191-73.078
			c28.419,2.34,53.437,19.647,65.649,45.414c1.659,3.488,5.574,5.292,9.304,4.288c29.875-8.002,60.58,9.73,68.581,39.605
			c1.26,4.703,1.901,9.55,1.907,14.419c0,4.418,3.582,8,8,8c17.673,0,32,14.327,32,32
			C354.272,329.692,339.945,344.019,322.272,344.019z M369.592,319.755c4.432-25.953-13.013-50.585-38.966-55.017
			c-0.243-0.042-0.486-0.081-0.73-0.119c-3.838-36.683-34.741-64.555-71.624-64.6c-4.137,0.008-8.265,0.38-12.336,1.112
			c-8.428-14.945-20.689-27.372-35.52-36C211.848,81.36,280.92,14.611,364.691,16.043c28.234,0.483,55.772,8.836,79.516,24.12
			c-68.222,3.317-121.855,59.554-121.936,127.856c0.081,68.302,53.714,124.539,121.936,127.856
			C421.867,310.256,396.13,318.493,369.592,319.755z"/>
	</g>
</g>
<g>
</g>
<g>
</g>
<g>
</g>
<g>
</g>
<g>
</g>
<g>
</g>
<g>
</g>
<g>
</g>
<g>
</g>
<g>
</g>
<g>
</g>
<g>
</g>
<g>
</g>
<g>
</g>
<g>
</g>
</svg>
